<?xml version="1.0"?>
<svg width="200" height="200" xmlns="http://www.w3.org/2000/svg" xmlns:svg="http://www.w3.org/2000/svg" xmlns:xlink="http://www.w3.org/1999/xlink">
 <g class="layer">
  <title>Layer 1</title>
  <path d="m145.54,65.7c10.71,15.36 21.38,29.97 20.2,43.72c-1.18,13.75 -14.29,26.56 -29.32,35.18c-15.12,8.61 -32.14,12.94 -50.18,11.66c-18.03,-1.36 -37.08,-8.42 -42.45,-20.66c-5.38,-12.16 2.77,-29.69 7.43,-46.26c4.67,-16.65 5.69,-32.44 15.55,-44.15c9.77,-11.73 28.3,-19.39 42.86,-15.22c14.63,4.27 25.29,20.38 35.92,35.72z" fill="#9EF0F0" id="svg_1"/>
  <use id="svg_3" transform="rotate(10.8603 29.8633 146.509) matrix(0.0978425 0.231986 -0.252422 0.0937269 145.916 96.0003)" x="-76.28" xlink:href="#svg_2" y="374.95"/>
  <use id="svg_5" transform="matrix(1 0 0 1 0 0) matrix(0.275745 0 0 0.244272 26.7035 11.7413)" x="376.7" xlink:href="#svg_4" y="33.27"/>
 </g>
 <defs>
  <symbol id="svg_2" viewBox="0 0 200 200" xmlns="http://www.w3.org/2000/svg">
   <path d="m27,-24.6c13.8,11.3 34.7,18 35.5,25.5c0.9,7.5 -18.3,15.8 -32,21.6c-13.8,5.7 -22.1,8.8 -35.5,13.9c-13.4,5 -31.8,11.9 -41.3,6.1c-9.5,-5.7 -10.1,-24.1 -5.9,-38.3c4.2,-14.2 13.3,-24.1 22.8,-35.4c9.5,-11.3 19.4,-24 27.7,-22.3c8.3,1.6 15,17.6 28.7,28.9z" fill="#9EF0F0" transform="translate(100 100)"/>
  </symbol>
  <symbol id="svg_4" viewBox="0 0 200 200" xmlns="http://www.w3.org/2000/svg">
   <path d="m35.4,-38c5.6,8.1 1.7,23.1 2.2,38.5c0.5,15.5 5.5,31.5 0,43c-5.6,11.5 -21.6,18.5 -35.4,16.3c-13.8,-2.3 -25.4,-13.6 -37.2,-25.1c-11.7,-11.5 -23.7,-23.1 -23,-34.1c0.6,-10.9 13.8,-21.2 25.6,-29.3c11.8,-8.1 22.1,-14 34.7,-16.3c12.6,-2.4 27.6,-1.1 33.1,7z" fill="#9EF0F0" transform="translate(100 100)"/>
  </symbol>
 </defs>
</svg>